# xmcd
# Copyright (C) 1995-1998 Ti Kan
#
# Track frame offsets:
#       150
#       15095
#       31435
#       48929
#
# Disc length: 960 seconds
#
# Revision: 0
# Processed by: cddbd v1.5.1PL0 Copyright (c) Steve Scherf et al.
# Submitted via: CD-Transfer v1.0
#
DISCID=2003be04
DTITLE=Kontrast - Strichcode
DYEAR=2004
DGENRE=
TTITLE0=Strichcode
TTITLE1=Äs Chlises Lache
TTITLE2=Vermisse Di
TTITLE3=Gheimnis
EXTD=
EXTT0=
EXTT1=
EXTT2=
EXTT3=
PLAYORDER=
